<?xml version="1.0" encoding="utf-8"?>
<!-- Generator: Adobe Illustrator 12.0.1, SVG Export Plug-In . SVG Version: 6.00 Build 51448)  -->
<!DOCTYPE svg PUBLIC "-//W3C//DTD SVG 1.1//EN" "http://www.w3.org/Graphics/SVG/1.1/DTD/svg11.dtd" [
	<!ENTITY ns_svg "http://www.w3.org/2000/svg">
	<!ENTITY ns_xlink "http://www.w3.org/1999/xlink">
]>
<svg  version="1.1" id="Layer_1" xmlns="&ns_svg;" xmlns:xlink="&ns_xlink;" width="44" height="44" viewBox="0 0 44 44"
	 overflow="visible" enable-background="new 0 0 44 44" xml:space="preserve">
<rect fill="none" width="44" height="44"/>
<g>
	<path d="M10.21,2.25c-1.654,0-3,1.346-3,3v26c0,1.654,1.346,3,3,3h14c1.654,0,3-1.346,3-3v-26c0-1.654-1.346-3-3-3H10.21z"/>
	<path fill="#625C52" d="M26.21,31.25c0,1.102-0.9,2-2,2h-14c-1.1,0-2-0.898-2-2v-26c0-1.1,0.9-2,2-2h14c1.1,0,2,0.9,2,2V31.25z"/>
	<path fill="#B2A99F" d="M24.21,3.25h-14c-1.1,0-2,0.9-2,2v4.432l1-0.063V5.25h16v7.381l1-0.5V5.25
		C26.21,4.15,25.31,3.25,24.21,3.25z"/>
	<rect x="10.21" y="6.25" fill="#ACA49C" width="14" height="18"/>
	<polygon fill="#FFFFFF" points="23.21,13.648 23.21,7.25 11.21,7.25 11.21,19.648 	"/>
	<path fill="#4C4642" d="M19.21,32.25c0.553,0,1-0.449,1-1v-4c0-0.551-0.447-1-1-1h-4c-0.553,0-1,0.449-1,1v4c0,0.551,0.447,1,1,1
		H8.489c0.348,0.594,0.986,1,1.721,1h14c0.734,0,1.373-0.406,1.721-1H19.21z"/>
	<rect x="15.21" y="27.25" fill="#FFFFFF" width="4" height="4"/>
</g>
<g>
	<g>
		<path d="M37.214,36.25l-5.586,4H20.214c-1.1,0-2-0.9-2-2v-15c0-1.1,0.9-2,2-2h15c1.1,0,2,0.9,2,2V36.25z"/>
		<path fill="#2C5190" d="M20.214,22.25c-0.265,0-0.516,0.104-0.705,0.295c-0.19,0.189-0.295,0.44-0.295,0.705v15
			c0,0.265,0.104,0.516,0.295,0.705c0.189,0.19,0.44,0.295,0.705,0.295c0,0,10.224,0,11,0c0.463-0.464,4.537-2.951,5-3.414
			c0-0.776,0-12.586,0-12.586c0-0.552-0.448-1-1-1H20.214z"/>
		<path fill="#708ACE" d="M20.214,22.25c-0.265,0-0.516,0.104-0.705,0.295c-0.19,0.189-0.295,0.44-0.295,0.705v12l17-8.5v-3.5
			c0-0.552-0.448-1-1-1H20.214z"/>
		<rect x="32.214" y="25.25" fill="#E4C787" width="4" height="2"/>
		<rect x="32.214" y="29.25" fill="#E4C787" width="4" height="2"/>
		<rect x="32.214" y="33.25" fill="#E4C787" width="4" height="2"/>
		<path d="M30.214,28.776c0-1.395-1.132-2.526-2.526-2.526c-1.396,0-2.527,1.132-2.527,2.526c0,0.933,0.51,1.739,1.264,2.177
			l-2,3.562l-0.242,1.048l6.033-0.048l-1.265-4.562C29.7,30.516,30.214,29.709,30.214,28.776z"/>
	</g>
	<path fill="#FFFFFF" d="M29.214,28.776c0-1.395-1.132-2.526-2.526-2.526c-1.396,0-2.527,1.132-2.527,2.526
		c0,0.933,0.51,1.739,1.264,2.177l-1,3.562h4.526l-1-3.562C28.7,30.516,29.214,29.709,29.214,28.776z"/>
</g>
<g>
	<path d="M13.553,13.502c-1.413,0-1.537-1.207-1.537-2.37c0-1.052,0.174-2.26,1.562-2.26c1.369,0,1.512,1.195,1.512,2.26
		C15.09,12.308,14.953,13.502,13.553,13.502z M13.553,9.444c-0.492,0-0.523,0.691-0.523,1.688c0,1.163,0.05,1.798,0.523,1.798
		c0.466,0,0.517-0.635,0.517-1.798C14.07,10.129,14.039,9.444,13.553,9.444z"/>
	<path d="M18.706,13.452h-2.863v-0.535h0.959V9.656l-0.959,0.206V9.326l1.419-0.441h0.541v4.032h0.903V13.452z"/>
	<path d="M20.872,13.502c-1.413,0-1.537-1.207-1.537-2.37c0-1.052,0.174-2.26,1.562-2.26c1.369,0,1.513,1.195,1.513,2.26
		C22.409,12.308,22.272,13.502,20.872,13.502z M20.872,9.444c-0.492,0-0.523,0.691-0.523,1.688c0,1.163,0.05,1.798,0.523,1.798
		c0.466,0,0.517-0.635,0.517-1.798C21.389,10.129,21.357,9.444,20.872,9.444z"/>
	<path d="M15.047,19.493h-2.863v-0.535h0.959v-3.261l-0.959,0.205v-0.535l1.419-0.441h0.542v4.032h0.902V19.493z"/>
	<path d="M17.213,19.543c-1.413,0-1.537-1.208-1.537-2.371c0-1.052,0.174-2.259,1.562-2.259c1.369,0,1.513,1.194,1.513,2.259
		C18.75,18.348,18.613,19.543,17.213,19.543z M17.213,15.485c-0.492,0-0.523,0.69-0.523,1.687c0,1.163,0.05,1.799,0.523,1.799
		c0.466,0,0.516-0.636,0.516-1.799C17.729,16.17,17.697,15.485,17.213,15.485z"/>
	<path d="M22.365,19.493h-2.862v-0.535h0.958v-3.261l-0.958,0.205v-0.535l1.419-0.441h0.541v4.032h0.902V19.493z"/>
</g>
</svg>
